<svg id="Capa_1" data-name="Capa 1" xmlns="http://www.w3.org/2000/svg" viewBox="0 0 120 120"><defs><style>.cls-1{fill:#3ac8d9;}.cls-2{fill:#fff;}</style></defs><path d="M118.18,61.61l-9-11h0a10.8,10.8,0,0,0,.31-1.93v-4.7c0-1.15,0-4.63-2.54-6.84L98.29,26.29h0s-.05-.09-.09-.12h0s0-.08-.09-.12h0s0-.08-.09-.11h0c-.11-.11-.15-.25-.28-.35h0s0-.08-.09-.12h0s0-.08-.09-.11a7.55,7.55,0,0,0-6.18-1.57,12.44,12.44,0,0,0-6.86,3.67,8.4,8.4,0,0,0-6.5-1.4l-4.74.65a8.17,8.17,0,0,0-1.35.57l-7.69-9.63c-2.93-2.53-7-3.52-11.59-2.89a20.09,20.09,0,0,0-10.53,4.88,14.36,14.36,0,0,0-10-2,16.21,16.21,0,0,0-8.71,3.9,8.44,8.44,0,0,0-5.62-1.08l-10,1.39A9.07,9.07,0,0,0,0,30.66v4.77a8.21,8.21,0,0,0,2.77,6.22h0s0,.08.08.11h0s.05.08.08.1H3s0,.08.08.11h0s0,.08.08.11h0s0,.07.08.1a0,0,0,0,0,0,0s0,.08.08.11h0s0,.08.07.11h0s0,.07.08.1h0s.05.08.08.11h0s0,.08.08.11h0s0,.07.08.1h0s0,.08.08.11h0s.05.07.08.1H4s0,.08.08.11h0s0,.08.08.11h0s.05.07.08.1h0s0,.08.07.11h0s0,.08.08.11h0s0,.08.08.11h0s0,.08.07.11h0s0,.07.08.1h0V71.41A8.44,8.44,0,0,0,6.5,76.59s4.39,5.57,8,10.36c3.4,4.52,5.57,4.52,7.92,4.52a10,10,0,0,0,1.21-.08l21.8-3,32,16.51a4.5,4.5,0,0,0,6.56-4V83.12l25.48-3.49a12.38,12.38,0,0,0,10.5-12A10.57,10.57,0,0,0,118.18,61.61Z"/><path class="cls-1" d="M99.5,50a8,8,0,0,0-6.71,7.69,5.72,5.72,0,0,0,6.71,5.82,8,8,0,0,0,6.7-7.68A5.73,5.73,0,0,0,99.5,50"/><path class="cls-2" d="M95.69,36.89V32.2c0-3-.9-4.44-3.71-4.05-4.11.57-7.81,6.2-8.84,9.52l-.14,0a16.49,16.49,0,0,0,.14-2V34.28c0-3-1.58-4.27-4.53-3.86l-4.73.66a4.68,4.68,0,0,0-4.45,5.1V63.05c0,2.9,1.58,4.27,4.46,3.87l5.34-.74c3-.41,4.53-2.21,4.53-5.11V52c0-5.25,2.46-9.26,7.54-10,2.88-.4,4.39-2.2,4.39-5.17"/><path class="cls-2" d="M53.24,19.12c-5.07.7-9.32,4-10.83,7.31h-.14c-1.78-4-5.83-5-9.6-4.47-5.62.78-8.16,4.31-9.8,7.23l-.14,0c0-3.45-1.92-4.77-4.39-4.43L15,25.25l-.19,0-6.51.9A4.66,4.66,0,0,0,4.4,30.66v4.77a3.69,3.69,0,0,0,4.33,3.76.36.36,0,0,1,.42.37V71.41a3.81,3.81,0,0,0,4.46,3.88L19,74.54c2.95-.41,4.53-2.21,4.53-5.11v-24c0-4.14.13-9.14,4.18-9.7,1.23-.17,2.12.47,2.12,2.19V68.55c0,2.9,1.51,4.28,4.45,3.87l5.35-.74a4.7,4.7,0,0,0,4.46-5.11v-24c0-4.15.13-9.14,4.18-9.7,1.23-.17,2.12.46,2.12,2.19V65.7c0,2.9,1.58,4.27,4.52,3.86l5.35-.74a4.7,4.7,0,0,0,4.46-5.11V30.79c0-10.22-5.62-12.48-11.45-11.67"/></svg>